<svg width="70" height="70" viewBox="0 0 70 70" fill="none" xmlns="http://www.w3.org/2000/svg">
<path d="M34.875 29.4167C36.2156 29.4167 37.543 29.1526 38.7816 28.6396C40.0201 28.1266 41.1455 27.3746 42.0934 26.4267C43.0413 25.4788 43.7933 24.3534 44.3063 23.1149C44.8193 21.8764 45.0833 20.5489 45.0833 19.2083C45.0833 17.8678 44.8193 16.5403 44.3063 15.3018C43.7933 14.0632 43.0413 12.9379 42.0934 11.99C41.1455 11.042 40.0201 10.2901 38.7816 9.77706C37.543 9.26405 36.2156 9 34.875 9C32.1676 9 29.5711 10.0755 27.6566 11.99C25.7422 13.9044 24.6667 16.5009 24.6667 19.2083C24.6667 21.9158 25.7422 24.5123 27.6566 26.4267C29.5711 28.3411 32.1676 29.4167 34.875 29.4167ZM13 59.75V61.5H56.75V59.75C56.75 53.2167 56.75 49.95 55.4783 47.4533C54.3598 45.2582 52.5751 43.4735 50.38 42.355C47.8833 41.0833 44.6167 41.0833 38.0833 41.0833H31.6667C25.1333 41.0833 21.8667 41.0833 19.37 42.355C17.1749 43.4735 15.3902 45.2582 14.2717 47.4533C13 49.95 13 53.2167 13 59.75Z" stroke="#F8F8F8" stroke-width="5.83333" stroke-linecap="round" stroke-linejoin="round"/>
</svg>
