<svg width="390" height="844" viewBox="0 0 390 844" fill="none" xmlns="http://www.w3.org/2000/svg">
<g clip-path="url(#clip0_237_7840)">
<rect width="390" height="844" fill="white"/>
<path d="M0 0V502H390V0H0Z" fill="#A8E1E8"/>
<path d="M389.5 513.551V345C360.7 341.4 286.833 366.717 253.5 379.551V513.551L389.5 513.551Z" fill="#65A35B"/>
<path d="M99.5 330.697C88.5 333.197 17.5 359.697 -1 369.197V505.697H390V442.697C390 442.697 281.5 396.697 261 379.697C240.5 362.697 196 355.697 175.5 342.697C159.377 332.473 110.5 328.197 99.5 330.697Z" fill="#4A8D34"/>
<path d="M9.5 473.197C6.7 469.597 1.66667 470.364 -0.5 471.197V500.197L390 507.697V463.197C390 463.197 374.5 477.697 364 471.197C345.66 459.844 335.67 480.197 330.5 473.697C316.5 456.097 302.667 466.364 297.5 473.697C275 445.197 259.182 478.697 253.5 471.197C243.5 457.997 218.667 467.364 207.5 473.697C181.9 451.297 166.5 462.697 162 471.197C150 458.797 129 462.364 120 465.697C117.167 467.53 110.8 470.497 108 467.697C95.6 455.697 79.1667 461.364 72.5 465.697C69 469.03 60.7 474.797 55.5 471.197C16.5 453.197 13 477.697 9.5 473.197Z" fill="#88BC43"/>
<path d="M388.887 540.099H-0.380493V843.923H388.887V540.099Z" fill="#DD8253"/>
<path d="M-0.380493 499.313C8.40507 482.425 30.4816 468.007 52.5581 490.71C52.5581 490.71 62.808 484.735 75.0289 492.462C75.0289 492.462 94.2332 473.663 111.354 495.171C111.354 495.171 139.513 467.051 168.066 497.879C168.066 497.879 178.372 488.479 190.818 500.588C190.818 500.588 204.165 476.769 223.651 497.561C223.651 497.561 253.669 467.051 282.503 497.879C282.503 497.879 293.26 489.834 304.298 500.588C304.298 500.588 320.236 474.459 340.623 500.588C340.623 500.588 368.726 473.981 388.887 499.393V554.836H-0.380493V499.393V499.313Z" fill="#C27156"/>
<path d="M-0.380493 602.951C8.40507 586.063 30.4816 572.919 52.5581 595.622C52.5581 595.622 62.808 589.648 75.0289 597.375C75.0289 597.375 94.2332 578.575 111.354 600.083C111.354 600.083 139.513 571.963 168.066 602.792C168.066 602.792 178.372 593.392 190.818 605.5C190.818 605.5 204.165 581.682 223.651 602.473C223.651 602.473 253.669 571.963 282.503 602.792C282.503 602.792 293.26 594.746 304.298 605.5C304.298 605.5 320.236 579.372 340.623 605.5C340.623 605.5 368.838 579.451 389 604.943L388.887 659.828H-0.380493V603.031V602.951Z" fill="#C27156"/>
<path d="M-0.380505 706.589C8.40505 689.701 30.4816 677.911 52.5581 700.615C52.5581 700.615 62.8079 694.64 75.0289 702.367C75.0289 702.367 94.2332 683.567 111.354 705.076C111.354 705.076 139.513 676.955 168.066 707.784C168.066 707.784 178.372 698.384 190.818 710.492C190.818 710.492 204.165 686.674 223.651 707.465C223.651 707.465 253.669 676.955 282.503 707.784C282.503 707.784 293.26 699.738 304.298 710.492C304.298 710.492 320.236 684.364 340.623 710.492C340.623 710.492 368.838 684.842 389 710.333V764.741H-1L-0.380505 706.669V706.589Z" fill="#C27156"/>
<path d="M-0.380493 813.891C8.40507 797.004 30.4816 782.904 52.5581 805.607C52.5581 805.607 62.808 799.632 75.0289 807.359C75.0289 807.359 94.2332 788.559 111.354 810.068C111.354 810.068 139.513 781.948 168.066 812.776C168.066 812.776 178.372 803.376 190.818 815.485C190.818 815.485 204.165 791.666 223.651 812.458C223.651 812.458 253.669 781.948 282.503 812.776C282.503 812.776 293.26 804.731 304.298 815.485C304.298 815.485 320.236 789.356 340.623 815.485C340.623 815.485 368.838 788.321 389 813.732L388.887 843.923H-0.380493V813.971V813.891Z" fill="#C27156"/>
</g>
<defs>
<clipPath id="clip0_237_7840">
<rect width="390" height="844" fill="white"/>
</clipPath>
</defs>
</svg>
