<svg width="70" height="70" viewBox="0 0 70 70" fill="none" xmlns="http://www.w3.org/2000/svg">
<g clip-path="url(#clip0_250_15227)">
<path d="M58.3334 11.6665C59.8051 11.666 61.2225 12.2219 62.3016 13.2225C63.3808 14.2232 64.0418 15.5948 64.1521 17.0623L64.1667 17.4998V52.4998C64.1672 53.9715 63.6114 55.389 62.6107 56.4681C61.61 57.5472 60.2384 58.2082 58.7709 58.3186L58.3334 58.3332H11.6667C10.195 58.3336 8.77755 57.7778 7.69844 56.7771C6.61933 55.7765 5.95833 54.4049 5.84796 52.9373L5.83337 52.4998V17.4998C5.83291 16.0282 6.38873 14.6107 7.38941 13.5316C8.39009 12.4525 9.76167 11.7915 11.2292 11.6811L11.6667 11.6665H58.3334ZM58.3334 21.624L38.0917 41.8657C37.2714 42.685 36.1594 43.1452 35 43.1452C33.8407 43.1452 32.7287 42.685 31.9084 41.8657L11.6667 21.624V52.4998H58.3334V21.624ZM54.2092 17.4998H15.7909L35 36.709L54.2092 17.4998Z" fill="#F8F8F8"/>
</g>
<defs>
<clipPath id="clip0_250_15227">
<rect width="70" height="70" fill="white"/>
</clipPath>
</defs>
</svg>
