<svg width="70" height="70" viewBox="0 0 70 70" fill="none" xmlns="http://www.w3.org/2000/svg">
<path d="M29.1667 5.8335C25.5167 5.83545 21.918 6.69367 18.66 8.33917C15.4019 9.98468 12.5753 12.3716 10.4074 15.308C8.23951 18.2445 6.79071 21.6486 6.17749 25.2467C5.56426 28.8448 5.80371 32.5366 6.87659 36.0254C7.94948 39.5142 9.82586 42.7026 12.3549 45.3344C14.884 47.9662 17.9952 49.968 21.4386 51.1788C24.8819 52.3897 28.5612 52.7758 32.1809 52.3063C35.8006 51.8367 39.2596 50.5245 42.28 48.4752L56.7 62.8835C57.1006 63.3133 57.5836 63.6581 58.1202 63.8972C58.6569 64.1363 59.2362 64.2649 59.8236 64.2753C60.4111 64.2856 60.9946 64.1776 61.5393 63.9575C62.0841 63.7375 62.579 63.41 62.9944 62.9946C63.4099 62.5791 63.7374 62.0842 63.9574 61.5395C64.1774 60.9947 64.2855 60.4112 64.2751 59.8238C64.2648 59.2364 64.1362 58.657 63.8971 58.1204C63.658 57.5837 63.3132 57.1007 62.8834 56.7002L48.475 42.2802C50.8587 38.7719 52.2411 34.6802 52.4734 30.4451C52.7058 26.21 51.7794 21.9917 49.7938 18.2437C47.8082 14.4957 44.8386 11.3598 41.2042 9.17318C37.5698 6.98657 33.4082 5.83196 29.1667 5.8335ZM14.5834 29.1668C14.5834 25.2991 16.1198 21.5898 18.8547 18.8549C21.5896 16.12 25.2989 14.5835 29.1667 14.5835C33.0344 14.5835 36.7438 16.12 39.4787 18.8549C42.2136 21.5898 43.75 25.2991 43.75 29.1668C43.75 33.0346 42.2136 36.7439 39.4787 39.4788C36.7438 42.2137 33.0344 43.7502 29.1667 43.7502C25.2989 43.7502 21.5896 42.2137 18.8547 39.4788C16.1198 36.7439 14.5834 33.0346 14.5834 29.1668Z" fill="#F8F8F8"/>
</svg>
