<svg width="146" height="124" viewBox="0 0 146 124" fill="none" xmlns="http://www.w3.org/2000/svg">
<path d="M43.468 13.6979V50.399C43.468 52.6365 45.2819 54.4503 47.5194 54.4503C49.7569 54.4503 51.5707 52.6365 51.5707 50.399V18.134C51.5707 16.8929 52.0324 15.6961 52.8658 14.7764L58.1348 8.96233C59.7106 7.2235 59.6086 4.54427 57.905 2.93038C56.1903 1.30588 53.4882 1.36142 51.8417 3.05501L44.883 10.2125C43.9757 11.1458 43.468 12.3962 43.468 13.6979Z" fill="#0D0000"/>
<path d="M61.1422 81.9997H6.78139C4.23364 81.9997 2.07555 80.0823 2.01639 77.5352C1.8175 68.9725 3.46704 59.8559 4.90602 54.0745C5.43106 51.9651 7.34612 50.5441 9.51979 50.5191L58.0524 49.9613C60.487 49.9333 62.5475 48.1558 62.9322 45.7516L67.2105 19.0117C67.3373 18.2196 66.7254 17.5019 65.9231 17.5019C65.0619 17.5019 64.4373 16.6817 64.6663 15.8515L65.8522 11.5526C66.4144 9.51454 68.2684 8.10278 70.3826 8.10278H118.175C120.771 8.10278 122.875 10.2069 122.875 12.8024V16.4627C122.875 17.0366 122.409 17.5019 121.835 17.5019C121.192 17.5019 120.704 18.0801 120.811 18.7143L124.448 40.256C124.684 41.6575 125.506 42.8921 126.708 43.651L128.647 44.8761C130.098 45.7922 130.978 47.3879 130.978 49.1035V54.6238C130.978 56.152 130.279 57.5963 129.08 58.5447L87.29 91.6161C86.4069 92.315 85.3135 92.6953 84.1873 92.6953H73.4379C71.7284 92.6953 70.1374 91.8219 69.2196 90.3796L65.3605 84.3153C64.4427 82.873 62.8517 81.9997 61.1422 81.9997Z" fill="#D22222" stroke="#D22222" stroke-width="4"/>
<circle cx="34.3929" cy="96.5845" r="26.577" fill="#0D0000"/>
<circle cx="34.6437" cy="96.8352" r="18.8044" fill="#D22222"/>
<circle cx="34.1421" cy="96.3338" r="7.7725" fill="#0D0000"/>
<path d="M69.713 43.3695L71.8046 25.172C72.0947 22.6481 74.2314 20.7429 76.7719 20.7429H109.442C111.939 20.7429 114.054 22.5857 114.395 25.0597L116.905 43.2572C117.32 46.2618 114.985 48.9404 111.952 48.9404H74.6803C71.6926 48.9404 69.3718 46.3375 69.713 43.3695Z" fill="#284EC8" stroke="#0D0000" stroke-width="4"/>
<circle cx="110.883" cy="88.806" r="34.3556" fill="#0D0000"/>
<circle cx="111.207" cy="89.13" r="24.3082" fill="#D22222"/>
<circle cx="110.559" cy="88.4817" r="10.0474" fill="#0D0000"/>
</svg>
