<svg width="122" height="132" viewBox="0 0 122 132" fill="none" xmlns="http://www.w3.org/2000/svg">
<g clip-path="url(#clip0_207_3775)">
<path d="M64.7996 131.271C63.9313 132.336 61.2187 132.152 60.6799 131.271V50.4081C60.6799 41.0112 63.063 31.7158 67.5757 23.5237L71.182 25.5147C67.0052 33.0981 64.7996 41.7087 64.7996 50.4145V131.277V131.271Z" fill="#63A143"/>
<path d="M60.7052 62.3795C60.5658 61.4728 60.4454 60.5724 60.3186 59.615C59.2095 51.1882 57.9546 41.6392 40.8864 29.2495L43.3075 25.9143C61.8081 39.3438 63.2468 50.2878 64.4066 59.0823C64.5271 60.0144 64.6475 60.8894 64.7806 61.7518L60.7116 62.3858L60.7052 62.3795Z" fill="#63A143"/>
<path d="M64.6728 73.2982L60.8066 71.8715C62.689 66.7673 66.4855 61.644 71.4925 57.4465C77.9319 52.0506 86.1396 48.2399 95.8684 46.1221L96.743 50.1484C77.8748 54.2445 67.8038 64.789 64.6728 73.2918V73.2982Z" fill="#63A143"/>
<path d="M60.8447 94.1142C57.9609 87.298 46.8504 83.0244 35.5498 84.3813L35.0618 80.2915C48.3082 78.7 61.0222 83.9565 64.6412 92.51L60.8447 94.1142Z" fill="#63A143"/>
<path d="M64.787 111.913L60.6926 111.482C61.4405 104.355 70.8841 94.6536 79.4087 92.2568L80.5242 96.2261C73.1848 98.2931 65.313 106.955 64.7933 111.913H64.787Z" fill="#63A143"/>
<path d="M89.7839 48.0939C91.3367 42.6663 96.274 35.6409 100.692 34.9307C100.622 35.5584 100.578 35.9516 100.381 36.2749C107.435 33.7196 113.761 35.2985 122 36.6363C120.447 39.255 114.768 49.2987 108.018 50.5605C108.316 50.5731 111.536 51.6827 112.366 52.4817C111.789 53.4518 99.5825 56.0641 89.7839 48.0876V48.0939Z" fill="#1D823B"/>
<path d="M88.9917 49.3744C96.8888 43.1289 96.5719 38.7094 96.7177 36.9467C96.6733 35.2347 96.255 33.4594 96.5909 32.4702C93.7895 34.5817 89.9867 36.4712 88.6241 40.0093C87.667 42.4948 88.0537 44.7838 88.9917 49.3744Z" fill="#1D823B"/>
<path d="M89.7839 48.0938C97.1107 48.8737 103.968 50.4461 109.577 59.6908C104.323 58.2325 98.074 59.4879 94.4931 57.5857C90.9881 55.6582 89.9994 53.4453 89.7839 48.0938Z" fill="#1D823B"/>
<path d="M90.5128 53.16C89.898 51.6002 87.7811 50.237 85.9368 50.1418C87.629 48.5884 88.3262 46.5086 88.2184 45.0059C92.6994 44.8474 92.598 50.1735 90.5128 53.16Z" fill="#1D823B"/>
<path d="M81.3924 52.6466C84.1495 51.7082 88.2692 51.7272 90.5255 53.3948C90.2593 53.7118 89.8093 53.8703 89.1882 54.0669C92.8198 56.191 94.0304 60.5661 93.441 64.6178C89.3593 65.2011 83.3762 63.5842 82.4382 59.7481C82.3495 60.2047 82.0199 60.6739 81.8044 60.8578C81.0058 60.0144 80.4481 56.9202 81.3924 52.6466Z" fill="#1D823B"/>
<g style="mix-blend-mode:multiply" opacity="0.3">
<path d="M93.441 60.7881C93.6312 62.0435 93.6248 63.3497 93.441 64.6178C89.8854 65.1251 84.8784 63.9648 83.0341 61.1115C83.839 61.4982 85.2397 61.6631 86.6214 62.126C88.5291 62.7664 90.5763 62.2655 91.4889 62.1894C92.465 62.1069 93.0291 61.4856 93.4474 60.7881H93.441Z" fill="#1D823B"/>
</g>
<path d="M81.3925 52.6465C83.3572 51.0106 85.9748 48.0495 86.4312 44.7587C85.9812 44.8982 85.3917 45.1518 85.0748 45.4879C85.8227 42.8882 84.2699 39.6862 79.396 38.0439C75.346 42.66 76.0305 45.4308 76.9369 46.8955C76.5312 46.7243 76.0242 46.8067 75.7136 46.9589C76.0432 48.5441 78.7939 50.5287 81.3925 52.6465Z" fill="#1D823B"/>
<g style="mix-blend-mode:screen" opacity="0.3">
<path d="M79.7193 39.0586C80.0552 39.0142 81.3038 39.5912 82.096 40.2126C82.6158 40.6247 83.2179 41.3032 83.2876 41.6582C83.3573 41.9879 81.9566 41.2334 81.2024 40.9544C80.4482 40.6754 79.3263 40.8086 79.1299 40.593C78.9334 40.3774 79.4024 39.1029 79.713 39.0649L79.7193 39.0586Z" fill="#1D823B"/>
</g>
<path d="M36.8554 80.3743C33.8449 75.8344 27.0632 69.7664 22.1576 70.2356C22.4492 70.8126 22.6393 71.1677 22.9562 71.4213C15.883 70.2229 7.74503 74.2429 0 83.4876C3.15632 83.6778 14.007 88.2938 20.9534 87.292C20.6809 87.3998 17.9999 89.6888 17.5245 90.7667C18.7288 91.293 31.1702 88.8581 36.8554 80.3807V80.3743Z" fill="#1D823B"/>
<path d="M37.9455 81.4076C29.0407 76.9501 27.4562 72.8921 26.8477 71.2562C26.3026 69.652 25.821 67.5152 25.1998 66.6592C28.7681 68.238 33.0399 69.8042 35.5054 73.6212C36.9124 75.7961 37.2864 77.21 37.9455 81.4139V81.4076Z" fill="#1D823B"/>
<path d="M36.8555 80.374C30.7773 81.9655 24.6422 85.6875 23.3239 96.2637C27.6781 93.049 33.6991 92.5227 36.0252 89.9421C38.3259 87.3551 38.3766 85.1993 36.8555 80.374Z" fill="#1D823B"/>
<path d="M37.8759 85.041C37.8759 83.5065 39.2512 81.9721 40.7533 81.6994C38.871 80.5454 37.6097 78.7827 37.2548 77.4639C33.2238 77.7492 35.0682 82.7266 37.8759 85.041Z" fill="#1D823B"/>
<path d="M49.7659 83.4937C46.8441 83.3543 42.661 84.6287 40.5758 87.0762C40.8864 87.3299 41.3681 87.3616 42.0209 87.3742C38.6047 90.7094 37.9329 95.6805 39.0547 99.7512C43.2758 99.1172 49.1575 95.5854 49.6138 91.2738C49.7596 91.7239 50.1589 92.1171 50.3997 92.2439C51.1032 91.1152 51.2744 87.6976 49.7596 83.5001L49.7659 83.4937Z" fill="#1D823B"/>
<g style="mix-blend-mode:multiply" opacity="0.3">
<path d="M38.5604 95.7249C38.5287 97.1008 38.7062 98.4704 39.0547 99.7449C42.7371 99.1932 47.6808 96.435 49.1892 92.8779C48.4223 93.531 47.0153 94.127 45.6716 95.0401C43.8146 96.2956 41.6723 96.397 40.7343 96.5936C39.7266 96.8028 39.0801 96.3273 38.5667 95.7249H38.5604Z" fill="#1D823B"/>
</g>
<g style="mix-blend-mode:screen" opacity="0.3">
<path d="M47.3574 84.9457C47.3891 85.3007 47.3131 85.548 46.2419 85.8968C45.437 86.1631 44.8349 86.3406 44.4293 86.4104C44.0173 86.4738 43.8082 86.4547 43.7131 86.3153C43.3391 85.5163 46.8884 83.9819 47.3638 84.9457H47.3574Z" fill="#1D823B"/>
</g>
<path d="M49.7659 83.4937C47.5603 82.3777 44.5181 80.0697 43.6307 76.7599C44.1061 76.7726 44.7336 76.855 45.1012 77.1086C44.011 74.6104 45.1772 70.7743 49.9244 67.5596C54.6335 71.1674 54.2976 74.287 53.5624 76.1004C53.949 75.7961 54.4814 75.7263 54.811 75.7898C54.6842 77.5525 52.1363 80.4818 49.7659 83.5V83.4937Z" fill="#1D823B"/>
<g style="mix-blend-mode:multiply" opacity="0.3">
<path d="M54.811 75.7834C54.4814 75.72 53.949 75.7898 53.5624 76.0941C53.854 75.3713 54.0821 74.4392 53.9554 73.3486C53.4737 74.509 52.561 75.4981 51.699 77.0833C50.742 78.8397 49.7659 80.038 48.1307 79.8478C46.8568 79.702 45.8491 80.2536 45.0948 79.6766C46.4258 81.452 48.2829 82.7455 49.7723 83.4937C52.1427 80.4755 54.6842 77.5462 54.8173 75.7834H54.811Z" fill="#1D823B"/>
</g>
<g style="mix-blend-mode:screen" opacity="0.3">
<path d="M49.7215 68.7139C49.3729 68.7709 48.1814 69.7537 47.4525 70.6541C46.9708 71.2438 46.4511 72.1378 46.4258 72.5373C46.4004 72.905 47.7251 71.6813 48.4539 71.1614C49.1828 70.6351 50.3427 70.4322 50.5138 70.1469C50.6849 69.8615 50.0448 68.6695 49.7279 68.7202L49.7215 68.7139Z" fill="#1D823B"/>
</g>
<path d="M78.9524 94.2539C79.0791 88.7629 80.8411 80.6024 85.5502 77.4448C85.9242 78.5354 86.1333 79.2138 85.9939 80.3615C91.3939 75.9104 101.985 76.4937 112.563 79.8606C108.405 83.4684 109.299 93.0492 98.0044 97.0501C98.8473 97.3038 99.5318 97.7413 100.166 98.3817C97.079 100.468 86.3678 98.7494 78.946 94.2666L78.9524 94.2539Z" fill="#1D823B"/>
<path d="M78.9524 94.2542C85.4362 93.9561 95.3488 98.16 97.5544 104.215C96.5086 104.767 84.7833 103.791 78.9524 94.2542Z" fill="#1D823B"/>
<path d="M78.9524 94.254C81.7158 88.4332 81.8616 83.367 75.9799 79.252C76.8545 83.9187 71.9996 86.4359 78.9524 94.254Z" fill="#1D823B"/>
<path d="M76.2713 90.5892C76.9559 91.7432 77.3551 94.0765 76.6453 95.0276C77.7418 94.736 80.8157 97.0249 82.0706 98.1282C84.3776 94.0385 78.5911 90.3672 76.265 90.5892H76.2713Z" fill="#1D823B"/>
<g style="mix-blend-mode:screen" opacity="0.3">
<path d="M109.761 80.4628C109.159 79.9302 105.223 78.8713 101.896 78.5606C98.6318 78.269 95.1205 78.7509 95.1902 79.2962C95.2663 79.8478 98.1691 80.0507 99.7789 80.856C101.389 81.6803 105.09 82.3841 106.25 82.9167C107.41 83.4556 107.86 83.7346 108.475 82.7645C109.089 81.7944 110.351 81.0018 109.755 80.4628H109.761Z" fill="#1D823B"/>
</g>
<path d="M71.4229 98.2611C73.825 97.5382 77.5644 97.7348 79.808 99.3326C79.5989 99.6053 79.2122 99.7321 78.6672 99.8779C82.1974 101.945 83.7883 105.933 83.6995 109.554C80.0552 109.903 74.4334 108.191 73.1595 104.697C73.1278 105.103 72.8806 105.515 72.7095 105.667C71.8919 104.874 71.0362 102.065 71.4292 98.2674L71.4229 98.2611Z" fill="#1D823B"/>
<path d="M71.4228 98.2613C73.0263 96.879 75.0735 94.3238 75.1305 91.388C74.7376 91.4958 74.2305 91.6987 73.977 91.9841C74.3636 89.6761 72.6017 86.734 67.9876 85.041C64.8186 89.0166 65.7503 91.5402 66.7327 92.8971C66.3461 92.7259 65.8897 92.7766 65.6299 92.8971C66.1052 94.3364 68.8242 96.245 71.4228 98.2613Z" fill="#1D823B"/>
<path d="M64.6222 42.4191C63.4433 39.2234 61.6243 37.2641 59.4124 35.419C56.8201 33.2695 55.2293 32.0521 50.5075 31.0693C47.6998 30.486 46.4702 30.8284 44.6322 30.8284C42.7941 30.8284 41.4632 30.5938 38.8012 31.1454C35.1695 31.8999 34.1998 32.4389 31.6837 33.9353C28.7428 35.6853 26.0619 38.5513 24.6421 42.4064C20.871 52.6339 26.6006 65.8859 44.6385 65.8859C62.6764 65.8859 68.406 52.6403 64.6349 42.4064L64.6222 42.4191Z" fill="#D22222"/>
<g style="mix-blend-mode:multiply" opacity="0.3">
<path d="M44.5054 36.8393C43.3963 39.1917 39.6632 40.4091 37.8125 40.9734C40.259 39.198 38.7822 38.0694 41.6407 36.3384C38.1928 36.8012 36.3231 35.1019 34.6182 34.4298C37.3435 34.1128 39.1498 33.0856 42.6294 34.3347C41.9449 32.3628 44.3597 30.8727 44.328 29.2305C45.0061 30.9361 46.4639 32.6735 45.9188 34.2016C47.9279 33.2822 50.9638 34.0113 53.4483 33.5358C51.3061 35.1907 49.4744 36.275 46.5336 36.0594C49.823 36.7125 50.0765 39.794 51.4519 40.2949C48.7392 40.5105 45.3674 39.0965 44.5181 36.8456L44.5054 36.8393Z" fill="#D22222"/>
</g>
<path d="M44.4737 36.5092C43.3519 38.8363 39.4413 39.6542 37.4195 40.3644C40.1005 38.4495 38.5921 37.3589 41.5836 35.5835C38.028 36.0781 35.5308 34.2393 34.4407 33.2565C36.9569 33.3643 39.1435 32.3244 42.6103 33.5862C41.9512 31.6142 44.3596 30.1432 44.3026 28.501C44.9617 30.1939 46.4322 31.9186 45.9124 33.453C47.9089 32.521 51.0779 33.3135 53.4293 32.4132C51.68 34.7656 49.5758 35.5264 46.5716 35.3109C49.9307 35.9639 50.368 39.1406 51.8765 39.743C48.98 39.7683 45.342 38.7475 44.4674 36.5156L44.4737 36.5092Z" fill="#306E36"/>
<g style="mix-blend-mode:multiply" opacity="0.3">
<path d="M50.4061 38.2149C49.3476 38.7348 46.8695 38.6017 45.399 37.7964C46.8948 39.1343 49.6075 39.7557 51.8765 39.7303C51.3061 39.502 50.8877 38.8997 50.4061 38.2085V38.2149Z" fill="#306E36"/>
</g>
<g style="mix-blend-mode:multiply" opacity="0.3">
<path d="M43.9667 37.2705C42.7118 38.2723 39.5301 39.4961 39.2132 38.304C38.9217 38.9191 38.5287 39.5722 37.4196 40.3648C39.2069 39.737 42.4583 39.0269 43.9667 37.2705Z" fill="#306E36"/>
</g>
<g style="mix-blend-mode:screen" opacity="0.3">
<path d="M44.499 29.5852C44.5624 29.6106 44.7335 29.6486 44.8983 29.7501C44.6828 29.3316 44.4673 28.9131 44.3089 28.501C44.3342 29.3443 43.7194 30.1369 43.1997 30.9802C43.7575 30.3334 44.4166 29.5535 44.499 29.5852Z" fill="#306E36"/>
</g>
<g style="mix-blend-mode:screen" opacity="0.3">
<path d="M38.9153 32.9585C37.3118 32.9839 35.9364 33.3199 34.4407 33.2565C34.7576 33.5418 35.1949 33.9032 35.7463 34.252C35.5879 34.0174 35.4484 33.8208 35.4484 33.7447C36.19 33.4848 37.8949 33.117 38.9153 32.9521V32.9585Z" fill="#306E36"/>
</g>
<g style="mix-blend-mode:screen" opacity="0.3">
<path d="M52.8526 32.9272C52.7321 33.092 52.561 33.371 52.3265 33.65C52.7131 33.3013 53.0871 32.8891 53.442 32.4072C52.6941 32.6926 51.8702 32.8067 51.0209 32.8638C51.7497 32.9715 52.4406 33.0032 52.8526 32.9272Z" fill="#306E36"/>
</g>
<path d="M111.257 70.8314C110.097 67.6927 108.31 65.7652 106.136 63.9581C103.595 61.8466 102.029 60.6482 97.3896 59.6908C94.6326 59.1201 93.4284 59.4562 91.6157 59.4562C89.8031 59.4562 88.5038 59.2216 85.8862 59.7669C82.3179 60.5088 81.3672 61.035 78.8954 62.5061C76.0053 64.2244 73.375 67.0396 71.9806 70.825C68.2729 80.875 73.9074 93.886 91.6157 93.886C109.324 93.886 114.959 80.875 111.251 70.825L111.257 70.8314Z" fill="#D22222"/>
<g style="mix-blend-mode:multiply" opacity="0.3">
<path d="M91.5015 65.3531C90.4114 67.6611 86.7481 68.8531 84.929 69.4111C87.3311 67.6674 85.8797 66.5578 88.6875 64.8585C85.303 65.3087 83.465 63.6411 81.7854 62.9817C84.46 62.671 86.2347 61.6628 89.6509 62.8866C88.979 60.9527 91.3558 59.4816 91.3177 57.8711C91.9832 59.545 93.4156 61.257 92.8769 62.7534C94.848 61.853 97.8269 62.5695 100.273 62.1003C98.1691 63.7235 96.3691 64.7888 93.4853 64.5732C96.7114 65.2136 96.9649 68.2444 98.3149 68.7327C95.6529 68.9482 92.3382 67.5533 91.5015 65.3467V65.3531Z" fill="#D22222"/>
</g>
<path d="M91.4698 65.0236C90.367 67.3062 86.5325 68.1115 84.5424 68.8089C87.1727 66.9321 85.6959 65.8542 88.6304 64.1168C85.1382 64.5987 82.6854 62.798 81.6143 61.8279C84.0861 61.9356 86.2283 60.9148 89.6381 62.1512C88.9917 60.2173 91.3557 58.7653 91.305 57.1548C91.9515 58.8224 93.3966 60.509 92.8895 62.0181C94.848 61.105 97.9599 61.8849 100.273 60.9972C98.5557 63.3052 96.4895 64.0534 93.536 63.8378C96.8381 64.4846 97.2691 67.6042 98.7458 68.1939C95.9001 68.2193 92.3318 67.2174 91.4698 65.0236Z" fill="#306E36"/>
<g style="mix-blend-mode:multiply" opacity="0.3">
<path d="M97.3009 66.7037C96.2614 67.2172 93.8276 67.0841 92.3826 66.2979C93.853 67.6104 96.5213 68.2191 98.7459 68.2001C98.1882 67.9781 97.7762 67.3884 97.3009 66.71V66.7037Z" fill="#306E36"/>
</g>
<g style="mix-blend-mode:multiply" opacity="0.3">
<path d="M90.9755 65.7715C89.746 66.7543 86.6213 67.959 86.3044 66.786C86.0192 67.3947 85.6326 68.0351 84.5425 68.8087C86.2981 68.1936 89.4861 67.4898 90.9692 65.7715H90.9755Z" fill="#306E36"/>
</g>
<g style="mix-blend-mode:screen" opacity="0.3">
<path d="M91.4952 58.2264C91.5523 58.2517 91.7234 58.2898 91.8882 58.3912C91.6727 57.9791 91.4699 57.5733 91.3114 57.1611C91.3368 57.9854 90.7347 58.7717 90.2213 59.5959C90.7664 58.9619 91.4192 58.1947 91.4952 58.2264Z" fill="#306E36"/>
</g>
<g style="mix-blend-mode:screen" opacity="0.3">
<path d="M86.0128 61.5361C84.441 61.5615 83.0847 61.8912 81.6206 61.8278C81.9312 62.1068 82.3622 62.4619 82.9009 62.8106C82.7488 62.5823 82.6093 62.3858 82.6093 62.316C83.3382 62.0624 85.0114 61.701 86.0192 61.5361H86.0128Z" fill="#306E36"/>
</g>
<g style="mix-blend-mode:screen" opacity="0.3">
<path d="M99.6966 61.5107C99.5825 61.6755 99.4114 61.9418 99.1769 62.2208C99.5572 61.8784 99.9248 61.4726 100.273 61.0034C99.5381 61.2824 98.7269 61.3965 97.8966 61.4536C98.6128 61.5551 99.291 61.5868 99.6966 61.517V61.5107Z" fill="#306E36"/>
</g>
<path d="M65.744 84.6985C64.5841 81.5599 62.7968 79.6323 60.6229 77.8253C58.0814 75.7138 56.5159 74.5154 51.8765 73.558C49.1194 72.9873 47.9152 73.3234 46.1025 73.3234C44.2899 73.3234 42.9906 73.0888 40.373 73.6341C36.8047 74.3759 35.854 74.9022 33.3822 76.3732C30.4921 78.0916 27.8618 80.9068 26.4674 84.6922C22.7597 94.7422 28.3942 107.753 46.1025 107.753C63.8109 107.753 69.4454 94.7422 65.7376 84.6922L65.744 84.6985Z" fill="#D22222"/>
<g style="mix-blend-mode:multiply" opacity="0.3">
<path d="M45.9885 79.2203C44.8983 81.5283 41.235 82.7203 39.416 83.2783C41.8181 81.5346 40.3667 80.425 43.1744 78.7257C39.7899 79.1759 37.9519 77.5083 36.2723 76.8489C38.947 76.5382 40.7279 75.53 44.1378 76.7538C43.466 74.8198 45.8427 73.3488 45.8047 71.7383C46.4702 73.4122 47.9026 75.1242 47.3638 76.6206C49.3349 75.7202 52.3138 76.4367 54.7603 75.9675C52.656 77.5907 50.8561 78.6559 47.9723 78.4404C51.1983 79.0808 51.4518 82.1116 52.8018 82.5998C50.1399 82.8154 46.8251 81.4205 45.9885 79.2139V79.2203Z" fill="#D22222"/>
</g>
<path d="M45.9568 78.8966C44.854 81.1792 41.0195 81.9845 39.0294 82.682C41.6596 80.8051 40.1829 79.7272 43.1174 77.9899C39.6251 78.4718 37.1723 76.671 36.1012 75.7009C38.573 75.8087 40.7153 74.7879 44.1251 76.0243C43.4786 74.0904 45.8427 72.6384 45.792 71.0278C46.4385 72.6954 47.8835 74.382 47.3765 75.8911C49.3349 74.9781 52.4469 75.758 54.7602 74.8703C53.0426 77.1783 50.9765 77.9265 48.023 77.7109C51.3251 78.3576 51.756 81.4772 53.2328 82.0669C50.387 82.0923 46.8187 81.0905 45.9568 78.8966Z" fill="#306E36"/>
<g style="mix-blend-mode:multiply" opacity="0.3">
<path d="M51.7877 80.5708C50.7482 81.0844 48.3144 80.9513 46.8694 80.165C48.3398 81.4776 51.0081 82.0863 53.2327 82.0672C52.675 81.8453 52.263 81.2556 51.7877 80.5772V80.5708Z" fill="#306E36"/>
</g>
<g style="mix-blend-mode:multiply" opacity="0.3">
<path d="M45.4624 79.6387C44.2328 80.6215 41.1082 81.8262 40.7913 80.6532C40.506 81.2619 40.1194 81.9023 39.0293 82.6759C40.7849 82.0608 43.9729 81.357 45.456 79.6387H45.4624Z" fill="#306E36"/>
</g>
<g style="mix-blend-mode:screen" opacity="0.3">
<path d="M45.9822 72.0931C46.0392 72.1184 46.2104 72.1565 46.3751 72.2579C46.1597 71.8458 45.9568 71.44 45.7984 71.0278C45.8237 71.8521 45.2216 72.6384 44.7083 73.4627C45.2533 72.8286 45.9061 72.0614 45.9822 72.0931Z" fill="#306E36"/>
</g>
<g style="mix-blend-mode:screen" opacity="0.3">
<path d="M40.4998 75.4033C38.928 75.4287 37.5716 75.7584 36.1075 75.695C36.4181 75.974 36.8491 76.3291 37.3878 76.6778C37.2357 76.4495 37.0963 76.253 37.0963 76.1832C37.8251 75.9296 39.4984 75.5682 40.5061 75.4033H40.4998Z" fill="#306E36"/>
</g>
<g style="mix-blend-mode:screen" opacity="0.3">
<path d="M54.1835 75.3779C54.0694 75.5427 53.8983 75.809 53.6638 76.088C54.0441 75.7456 54.4117 75.3398 54.7603 74.8706C54.0251 75.1496 53.2138 75.2637 52.3835 75.3208C53.0997 75.4222 53.7779 75.4539 54.1835 75.3842V75.3779Z" fill="#306E36"/>
</g>
<path d="M65.0151 35.0576C68.1905 32.4452 72.2278 30.8284 75.7073 31.0883C75.5615 31.4751 75.3334 31.621 75.0672 31.7985C79.4911 32.198 83.3383 35.0576 86.2157 39.0903C82.8122 38.583 78.3122 41.9309 72.7538 40.3964C72.9376 40.6754 73.1024 41.2841 73.2101 41.8294C68.5961 40.9164 67.189 37.6002 65.0024 35.0576H65.0151Z" fill="#1D823B"/>
<path d="M65.0151 35.0575C65.1799 33.4913 64.8566 31.8998 63.7221 30.023C62.8792 28.628 61.1679 27.436 59.6341 26.4595C59.6468 26.7702 59.7989 26.9668 59.8813 27.2711C57.4222 26.1488 54.0694 25.6353 49.6771 25.9903C52.187 28.8563 53.106 32.5973 56.1862 34.4107C55.7172 34.4298 55.0644 34.7531 54.5257 35.0892C56.2369 36.6744 61.2249 36.8012 65.0151 35.0511V35.0575Z" fill="#1D823B"/>
<path d="M44.5751 28.9895C45.323 23.4351 41.7484 14.5455 35.8667 12.3072C35.8667 13.011 35.8667 13.4485 36.0569 13.8607C29.2499 10.982 18.602 9.81534 8.82251 11.6034C11.8267 14.0953 19.1281 25.3436 25.314 27.9116C24.9971 27.8736 21.5745 28.6154 20.6809 29.3826C21.5429 30.6761 31.9372 34.7278 44.5751 28.9895Z" fill="#1D823B"/>
<path d="M44.8666 30.4351C39.3526 22.3698 40.0117 17.5065 40.449 15.7121C40.8864 13.9177 43.2694 11.0136 43.0666 9.87866C46.3244 13.2392 49.6138 16.4286 49.3222 21.1016C49.1574 23.7774 47.6173 26.1742 44.8603 30.4288L44.8666 30.4351Z" fill="#1D823B"/>
<path d="M44.5751 28.9892C36.9188 27.9049 29.0661 28.3044 22.2717 37.6949C27.3675 36.8833 32.628 39.1533 36.5132 37.6949C40.3984 36.2366 42.2808 34.2012 44.5751 28.9892Z" fill="#1D823B"/>
<path d="M41.8941 33.8526C43.0793 32.3943 45.6969 31.5319 47.5413 31.8743C46.5779 30.0229 46.6856 27.81 47.3892 26.4087C42.7054 24.9186 41.0892 30.4477 41.8941 33.8463V33.8526Z" fill="#1D823B"/>
<path d="M67.9496 27.9053C65.2179 23.1624 62.2834 15.319 64.6982 10.1831C65.5728 10.9313 66.0925 11.4132 66.5552 12.4657C68.8115 5.91584 78.6418 1.14131 89.5938 -0.00634766C87.3882 5.00912 91.9896 13.2393 84.5234 21.5329C85.3283 21.3997 86.0826 21.5012 86.8875 21.8055C85.2713 24.9188 76.0368 27.9877 67.9496 27.8989V27.9053Z" fill="#1D823B"/>
<path d="M67.9496 27.9051C72.8615 24.3543 82.9706 23.5618 87.4199 28.1143C86.7671 29.0084 77.3615 33.0854 67.9496 27.9051Z" fill="#1D823B"/>
<path d="M67.9496 27.9052C67.1003 21.5899 64.7109 17.0626 57.6377 16.7266C60.813 20.233 58.4173 24.7792 67.9496 27.9052Z" fill="#1D823B"/>
<path d="M63.9376 26.1361C65.0911 26.7575 66.6123 28.5519 66.5679 29.7122C67.2651 28.907 70.8397 29.3445 72.3672 29.7122C72.1326 25.0518 65.6679 24.7285 63.944 26.1361H63.9376Z" fill="#1D823B"/>
<path d="M52.263 36.1544C49.3729 34.6643 44.6131 33.9098 41.4694 35.2096C41.6786 35.5901 42.1476 35.8373 42.8068 36.1544C37.9455 37.6635 35.1568 41.9624 34.561 46.2614C39.0927 47.631 46.5208 47.092 48.8152 43.3003C48.7708 43.7885 49.0053 44.3402 49.1955 44.5621C50.387 43.8393 52.0095 40.7514 52.263 36.1544Z" fill="#1D823B"/>
<path d="M52.2631 36.1544C50.5075 34.0937 48.4223 30.5429 48.9293 27.0556C49.4046 27.2838 50.0004 27.6579 50.2666 28.0637C50.2286 25.2358 53.0363 22.2177 59.1842 21.4441C62.4039 26.9795 60.737 29.7123 59.2285 31.0565C59.7483 30.9551 60.3123 31.139 60.6229 31.3482C59.7419 32.927 55.9328 34.4615 52.2631 36.1608V36.1544Z" fill="#1D823B"/>
<path d="M66.0102 42.3364C63.9313 45.3229 57.3652 53.5214 58.3222 60.0015C58.975 60.0713 59.7736 59.0631 60.5785 58.0105C60.4264 63.7108 63.5194 72.3405 72.6587 76.4555C79.9538 68.8785 79.865 59.6338 78.3819 55.8484C79.0664 56.6473 79.8397 56.7551 80.3721 56.6219C80.689 53.6545 72.0249 44.3528 66.0102 42.3301V42.3364Z" fill="#1D823B"/>
<path d="M66.0101 42.3365C56.8137 39.9588 48.3271 44.0992 45.1201 53.8956C49.7912 52.8874 54.3165 53.8004 58.2207 52.2216C63.0059 50.2941 64.882 46.9969 66.0101 42.3365Z" fill="#1D823B"/>
<path d="M66.0101 42.3368C70.6812 39.2489 81.8361 37.2706 88.4846 46.0587C85.4804 45.7417 79.9347 49.134 74.8136 48.3794C69.6925 47.6249 66.9038 43.8839 66.0101 42.3431V42.3368Z" fill="#1D823B"/>
</g>
<defs>
<clipPath id="clip0_207_3775">
<rect width="122" height="132" fill="white"/>
</clipPath>
</defs>
</svg>
