<svg width="70" height="70" viewBox="0 0 70 70" fill="none" xmlns="http://www.w3.org/2000/svg">
<path d="M20.4166 58.3332H49.5833M29.1666 58.3332C45.2083 51.0415 31.5 39.6665 37.9166 29.1665" stroke="#F8F8F8" stroke-width="5.83333" stroke-linecap="round" stroke-linejoin="round"/>
<path d="M27.7083 27.4165C30.9166 29.7498 32.9583 33.8332 34.4166 38.2082C28.5833 39.3748 24.2083 39.3748 20.4166 37.3332C16.9166 35.5832 13.7083 31.7915 11.6666 25.0832C19.8333 23.6248 24.5 25.0832 27.7083 27.4165ZM41.125 17.4998C38.9013 20.9752 37.7827 25.0428 37.9166 29.1665C43.4583 28.8748 47.5416 27.4165 50.4583 25.0832C53.375 22.1665 55.125 18.3748 55.4166 11.6665C47.5416 11.9582 43.75 14.5832 41.125 17.4998Z" stroke="#F8F8F8" stroke-width="5.83333" stroke-linecap="round" stroke-linejoin="round"/>
</svg>
