<svg width="118" height="118" viewBox="0 0 118 118" fill="none" xmlns="http://www.w3.org/2000/svg">
<path d="M118 59C118 91.5848 91.5848 118 59 118C26.4152 118 0 91.5848 0 59C0 26.4152 26.4152 0 59 0C91.5848 0 118 26.4152 118 59Z" fill="white"/>
<path fill-rule="evenodd" clip-rule="evenodd" d="M59 108C86.062 108 108 86.062 108 59C108 31.938 86.062 10 59 10C31.938 10 10 31.938 10 59C10 86.062 31.938 108 59 108ZM59 118C91.5848 118 118 91.5848 118 59C118 26.4152 91.5848 0 59 0C26.4152 0 0 26.4152 0 59C0 91.5848 26.4152 118 59 118Z" fill="#FFD12D"/>
<path d="M118 59C118 91.5848 91.5848 118 59 118C26.4152 118 0 91.5848 0 59C0 26.4152 26.4152 0 59 0C91.5848 0 118 26.4152 118 59Z" fill="white"/>
<path fill-rule="evenodd" clip-rule="evenodd" d="M59 108C86.062 108 108 86.062 108 59C108 31.938 86.062 10 59 10C31.938 10 10 31.938 10 59C10 86.062 31.938 108 59 108ZM59 118C91.5848 118 118 91.5848 118 59C118 26.4152 91.5848 0 59 0C26.4152 0 0 26.4152 0 59C0 91.5848 26.4152 118 59 118Z" fill="#FFD12D"/>
<path fill-rule="evenodd" clip-rule="evenodd" d="M76.7502 36.9168C75.8828 36.9168 75.051 37.2614 74.4376 37.8747L38.5505 73.7618L37.0088 79.9288L43.1757 78.387L79.0628 42.5C79.3665 42.1963 79.6074 41.8357 79.7718 41.4389C79.9361 41.0421 80.0207 40.6168 80.0207 40.1873C80.0207 39.7579 79.9361 39.3326 79.7718 38.9358C79.6074 38.539 79.3665 38.1784 79.0628 37.8747C78.7591 37.571 78.3986 37.3301 78.0018 37.1658C77.605 37.0014 77.1797 36.9168 76.7502 36.9168ZM70.3128 33.75C72.0201 32.0426 74.3357 31.0835 76.7502 31.0835C77.9458 31.0835 79.1296 31.319 80.2341 31.7765C81.3386 32.234 82.3423 32.9046 83.1876 33.75C84.033 34.5953 84.7036 35.5989 85.1611 36.7035C85.6186 37.808 85.8541 38.9918 85.8541 40.1873C85.8541 41.3829 85.6186 42.5667 85.1611 43.6712C84.7036 44.7758 84.033 45.7794 83.1876 46.6247L46.7293 83.0831C46.3555 83.4569 45.8871 83.7221 45.3743 83.8503L33.7076 86.7669C32.7137 87.0154 31.6623 86.7242 30.9378 85.9997C30.2134 85.2753 29.9222 84.2239 30.1706 83.23L33.0873 71.5633C33.2155 71.0504 33.4807 70.5821 33.8545 70.2083L70.3128 33.75ZM56.3336 83.9374C56.3336 82.3265 57.6394 81.0207 59.2502 81.0207H85.5002C87.1111 81.0207 88.4169 82.3265 88.4169 83.9374C88.4169 85.5482 87.1111 86.854 85.5002 86.854H59.2502C57.6394 86.854 56.3336 85.5482 56.3336 83.9374Z" fill="#FFD12D"/>
</svg>
