<svg width="333" height="290" viewBox="0 0 333 290" fill="none" xmlns="http://www.w3.org/2000/svg">
<g clip-path="url(#clip0_256_33)">
<path d="M83.388 274.343C88.1419 267.429 89.3811 260.026 86.156 257.809C82.9309 255.591 76.4626 259.399 71.7087 266.313C66.9549 273.227 65.7156 280.63 68.9407 282.847C72.1658 285.064 78.6341 281.257 83.388 274.343Z" fill="#E7A51F"/>
<path d="M97.2921 289.989C101.205 289.922 104.261 283.067 104.118 274.677C103.974 266.288 100.686 259.541 96.7724 259.608C92.8591 259.675 89.8031 266.53 89.9466 274.92C90.0901 283.309 93.3788 290.056 97.2921 289.989Z" fill="#E7A51F"/>
<path d="M93.8772 272.588C95.9396 263.641 94.6099 255.696 90.9072 254.843C87.2045 253.989 82.5309 260.551 80.4685 269.498C78.4061 278.445 79.7358 286.39 83.4385 287.244C87.1412 288.097 91.8148 281.536 93.8772 272.588Z" fill="#E7A51F"/>
<path d="M160.417 279.856C163.407 277.331 161.442 270.087 156.028 263.676C150.615 257.266 143.802 254.116 140.812 256.641C137.821 259.166 139.786 266.41 145.2 272.82C150.613 279.231 157.426 282.381 160.417 279.856Z" fill="#E7A51F"/>
<path d="M132.937 289.776C136.838 289.456 139.443 282.417 138.755 274.054C138.068 265.692 134.348 259.173 130.447 259.494C126.547 259.814 123.942 266.853 124.629 275.216C125.317 283.578 129.036 290.097 132.937 289.776Z" fill="#E7A51F"/>
<path d="M146.452 285.675C150.052 284.46 150.589 276.422 147.651 267.723C144.713 259.024 139.413 252.957 135.813 254.173C132.213 255.389 131.676 263.426 134.614 272.125C137.552 280.825 142.852 286.891 146.452 285.675Z" fill="#E7A51F"/>
<path d="M206.533 140.257C220.913 102.05 198.801 72.181 196.039 66.8888C195.832 66.4886 195.819 65.9981 195.974 65.5722C203.332 46.5202 202.054 34.0642 201.047 29.2496C200.815 28.1266 199.537 27.6103 198.582 28.2299C195.574 30.1918 192.45 32.2313 189.314 34.2707C183.066 38.3367 176.702 42.4543 169.577 44.5712C169.022 44.739 168.415 44.5712 167.989 44.171C155.494 32.6702 120.667 32.7347 118.976 32.7476C118.924 32.7476 118.899 32.7476 118.847 32.7476C117.156 32.6056 82.4326 29.8433 69.0854 40.3374C68.6207 40.6988 68.014 40.8279 67.4719 40.6085C60.5272 37.9365 54.499 33.3414 48.587 28.8107C45.618 26.5389 42.662 24.2672 39.8222 22.0728C38.9186 21.3758 37.602 21.8018 37.2793 22.8989C35.8981 27.6232 33.6649 39.9502 39.5253 59.5055C39.6544 59.9444 39.6028 60.422 39.3704 60.8092C36.2079 65.8691 11.8498 93.9307 23.235 133.145C23.4157 133.79 23.1963 134.474 22.6541 134.887C-10.4429 160.096 -8.05483 230.547 50.8717 257.086C50.8717 257.086 80.4835 272.51 109.566 271.646C109.618 271.646 109.682 271.646 109.734 271.646C138.661 274.756 169.37 261.668 169.37 261.668C230.181 239.776 238.004 169.712 206.959 142.025C206.456 141.573 206.288 140.876 206.52 140.244L206.533 140.257Z" fill="#AB9685"/>
<path d="M178.613 74.9943C159.521 59.7889 139.978 62.7319 124.708 72.7225C118.537 76.7627 110.495 76.7627 104.325 72.7225C89.0418 62.7319 69.4986 59.7889 50.4201 74.9943C26.7591 93.8397 33.678 126.161 44.4564 135.777C55.2349 145.394 70.0408 146.555 84.2787 145.394C98.0519 144.283 91.3782 141.005 112.303 138.527C113.774 138.359 115.284 138.359 116.756 138.527C137.68 141.005 131.007 144.283 144.78 145.394C159.018 146.542 173.824 145.394 184.602 135.777C195.381 126.161 202.3 93.8397 178.639 74.9943H178.613Z" fill="#FCF9F2"/>
<path d="M80.845 116.054C90.291 116.054 97.9485 108.397 97.9485 98.9515C97.9485 89.5059 90.291 81.8486 80.845 81.8486C71.399 81.8486 63.7415 89.5059 63.7415 98.9515C63.7415 108.397 71.399 116.054 80.845 116.054Z" fill="#E7A51F"/>
<path d="M83.7236 111.833C90.8384 111.833 96.6061 106.066 96.6061 98.9513C96.6061 91.8368 90.8384 86.0693 83.7236 86.0693C76.6088 86.0693 70.8411 91.8368 70.8411 98.9513C70.8411 106.066 76.6088 111.833 83.7236 111.833Z" fill="#6B4A1E"/>
<path d="M56.6677 131.427C63.7825 131.427 69.5502 125.66 69.5502 118.545C69.5502 111.431 63.7825 105.663 56.6677 105.663C49.5529 105.663 43.7852 111.431 43.7852 118.545C43.7852 125.66 49.5529 131.427 56.6677 131.427Z" fill="#F3CCB1"/>
<path d="M168.428 133.389C175.543 133.389 181.31 127.622 181.31 120.507C181.31 113.392 175.543 107.625 168.428 107.625C161.313 107.625 155.545 113.392 155.545 120.507C155.545 127.622 161.313 133.389 168.428 133.389Z" fill="#F3CCB1"/>
<path d="M117.375 126.445L122.061 113.873C123.197 110.839 120.951 107.612 117.711 107.612H108.327C105.087 107.612 102.854 110.839 103.977 113.873L108.662 126.445C110.16 130.472 115.852 130.472 117.35 126.445H117.375Z" fill="#DFA127"/>
<path d="M16.2903 145.742C-3.88547 139.392 -13.812 215.303 38.3893 250.296C38.3893 250.296 48.3288 155.823 16.2903 145.742Z" fill="#988673"/>
<path d="M78.0568 42.4925C78.0826 48.4818 96.1414 56.0199 116.395 55.9425C136.648 55.865 154.655 48.1978 154.629 42.2086L154.603 33.9476L168.557 28.2036L168.622 46.1842C166.995 46.4423 165.743 47.8622 165.756 49.5531C165.756 50.9988 166.724 52.2638 168.092 52.7155L165.382 71.0705L178.458 71.0188L175.605 52.6768C176.973 52.2121 177.916 50.9472 177.916 49.5015C177.916 47.7977 176.651 46.3907 175.011 46.1455L174.856 24.5636C174.973 24.37 174.973 24.1505 174.973 24.0473C174.973 23.944 174.973 23.7375 174.921 23.7375C174.831 22.9501 174.276 22.2531 173.449 21.9304L169.745 20.4331L121.558 1.01972C119.88 0.348511 118.034 0 116.188 0C114.342 0 112.496 0.374327 110.831 1.05844L59.0816 22.3563C58.1651 22.7307 57.5713 23.5697 57.5713 24.4861C57.5713 25.4026 58.178 26.2287 59.0945 26.6159L78.0181 34.2315L78.0439 42.4925H78.0568Z" fill="#4C4B4C"/>
<path d="M151.276 100.193C162.42 95.8254 170.86 90.7676 170.127 88.8959C169.393 87.0242 159.764 89.0473 148.62 93.4146C137.475 97.7819 129.035 102.84 129.769 104.711C130.502 106.583 140.131 104.56 151.276 100.193Z" fill="#6B4A1E"/>
<path d="M151.875 103.191C163.55 100.553 172.656 96.8254 172.213 94.8645C171.77 92.9036 161.946 93.4521 150.27 96.0896C138.595 98.7271 129.489 102.455 129.932 104.416C130.375 106.377 140.199 105.828 151.875 103.191Z" fill="#6B4A1E"/>
<path d="M273.84 118.242C306.687 74.7962 325.168 33.4185 315.12 25.8219C305.071 18.2253 270.298 47.2865 237.451 90.7318C204.604 134.177 186.122 175.555 196.171 183.151C206.219 190.748 240.993 161.687 273.84 118.242Z" fill="#988673"/>
<path d="M277.44 163.726C313.86 140.211 336.424 110.371 327.839 97.0753C319.254 83.78 282.771 92.0647 246.351 115.58C209.931 139.095 187.367 168.935 195.952 182.23C204.537 195.526 241.02 187.241 277.44 163.726Z" fill="#988673"/>
<path d="M266.178 201.052C304.562 196.733 334.153 179.685 332.272 162.974C330.392 146.262 297.752 136.216 259.369 140.535C220.986 144.853 191.394 161.902 193.275 178.613C195.155 195.324 227.795 205.371 266.178 201.052Z" fill="#988673"/>
</g>
<defs>
<clipPath id="clip0_256_33">
<rect width="332.377" height="290" fill="white"/>
</clipPath>
</defs>
</svg>
