<?xml version="1.0" encoding="UTF-8"?><svg id="_レイヤー_1" xmlns="http://www.w3.org/2000/svg" viewBox="0 0 482.74 145.1"><defs><style>.cls-1{stroke-width:20px;}.cls-1,.cls-2{stroke:#fff;}.cls-1,.cls-2,.cls-3,.cls-4,.cls-5,.cls-6,.cls-7,.cls-8,.cls-9{stroke-miterlimit:10;}.cls-1,.cls-2,.cls-10{fill:#fff;}.cls-2{stroke-width:4px;}.cls-3,.cls-4,.cls-5{stroke-width:.25px;}.cls-3,.cls-6,.cls-7{fill:#005147;}.cls-3,.cls-6,.cls-8{stroke:#005147;}.cls-4{fill:#f5ca35;stroke:#f5ca35;}.cls-5{fill:#75c1ca;}.cls-5,.cls-9{stroke:#75c1ca;}.cls-6,.cls-7,.cls-8,.cls-9{stroke-width:14px;}.cls-7{stroke:#55b48b;}.cls-8,.cls-9{fill:#53ac86;}.cls-10{stroke-width:0px;}</style></defs><path class="cls-1" d="m30.6,113.13h25.83c16.57.23,23.65-8.11,23.43-27.54v-13.48h-28.34v24.34h-19.54v-24.34H13v-18.51h18.97v-19.43h19.54v19.43h28.34v-19.43h20.34v19.43h19.77v18.51h-19.77v13.37c.57,29.25-15.31,46.05-43.42,46.05h-26.17v-18.4Z"/><path class="cls-1" d="m135.16,111.64c6.97-1.14,10.17-6.51,10.4-17.71v-14.74h18.63v13.83c0,11.54-1.94,19.77-5.83,25.37-5.71,8.11-13.48,12.46-23.2,12.91v-19.65Zm41.48-41.25h-38.4v-18.51h38.4v-17.71h20v17.71h38.51v18.51h-38.51v62.74h-20v-62.74Zm30.74,25.48v-16.68h18.4v15.2c0,9.48,3.54,14.63,12.11,17.03v19.88c-20.91-2.17-30.4-13.26-30.51-35.42Z"/><path class="cls-1" d="m27.6,109.13h25.83c16.57.23,23.65-8.11,23.43-27.54v-13.48h-28.34v24.34h-19.54v-24.34H10v-18.51h18.97v-19.43h19.54v19.43h28.34v-19.43h20.34v19.43h19.77v18.51h-19.77v13.37c.57,29.25-15.31,46.05-43.42,46.05h-26.17v-18.4Z"/><path class="cls-1" d="m132.16,107.64c6.97-1.14,10.17-6.51,10.4-17.71v-14.74h18.63v13.83c0,11.54-1.94,19.77-5.83,25.37-5.71,8.11-13.48,12.46-23.2,12.91v-19.65Zm41.48-41.25h-38.4v-18.51h38.4v-17.71h20v17.71h38.51v18.51h-38.51v62.74h-20v-62.74Zm30.74,25.48v-16.68h18.4v15.2c0,9.48,3.54,14.63,12.11,17.03v19.88c-20.91-2.17-30.4-13.26-30.51-35.42Z"/><path class="cls-1" d="m27.72,108.79h25.83c16.57.23,23.65-8.11,23.43-27.54v-13.48h-28.34v24.34h-19.54v-24.34H10.12v-18.51h18.97v-19.43h19.54v19.43h28.34v-19.43h20.34v19.43h19.77v18.51h-19.77v13.37c.57,29.25-15.31,46.05-43.42,46.05h-26.17v-18.4Z"/><path class="cls-1" d="m132.39,107.31c6.97-1.14,10.17-6.51,10.4-17.71v-14.74h18.63v13.83c0,11.54-1.94,19.77-5.83,25.37-5.71,8.11-13.48,12.46-23.2,12.91v-19.65Zm41.48-41.25h-38.4v-18.51h38.4v-17.71h20v17.71h38.51v18.51h-38.51v62.74h-20v-62.74Zm30.74,25.48v-16.68h18.4v15.2c0,9.48,3.54,14.63,12.11,17.03v19.88c-20.91-2.17-30.4-13.26-30.51-35.42Z"/><path class="cls-2" d="m224.9,34.7c-.26.54-1.06.82-1.78.62l-7.73-2.12c-.72-.2-1.09-.8-.83-1.34v-.02c.27-.54,1.07-.82,1.78-.62l7.73,2.12c.72.2,1.09.8.83,1.34v.02Z"/><path class="cls-2" d="m216.18,30.18c-.72-.2-1.13-.77-.95-1.33.5-1.58.44-3.25-.19-4.82-1.06-2.65-1.03-5.6.08-7.9,1.09-2.26,3.2-3.91,6.09-4.77,2.76-.82,5.99-.81,9.08.04,3.09.85,5.58,2.4,6.99,4.37,1.48,2.06,1.69,4.34.6,6.6-1.11,2.3-3.6,4.57-6.67,6.09-1.83.9-3.3,2.15-4.26,3.6-.34.52-1.14.76-1.86.56l-8.92-2.45Zm8.73-.05c1.17-1.42,2.77-2.66,4.64-3.59,2.5-1.24,4.6-3.13,5.48-4.96.8-1.65.66-3.24-.41-4.72-1.06-1.48-2.97-2.65-5.36-3.31-2.39-.66-4.85-.68-6.93-.06-2.09.62-3.55,1.77-4.34,3.42-.88,1.82-.89,4.29-.03,6.45.65,1.62.82,3.34.5,5l6.45,1.77Z"/><path class="cls-2" d="m222.19,35.92l-6.59-1.81c-.67-.18-1.42.08-1.66.58l-.07.14c-.24.5.1,1.07.77,1.25l1.28.35c.12.57.73,1.11,1.62,1.36.9.25,1.83.13,2.4-.25l1.28.35c.67.18,1.42-.08,1.66-.58l.07-.14c.24-.5-.1-1.07-.77-1.25Z"/><polygon class="cls-2" points="233.04 9.56 229.78 8.66 232.33 3.37 235.59 4.26 233.04 9.56"/><polygon class="cls-2" points="217.92 10.06 214.76 4.95 217.91 3.84 221.07 8.95 217.92 10.06"/><polygon class="cls-2" points="240.93 16.37 239.46 14 246.24 11.62 247.7 13.99 240.93 16.37"/><path class="cls-2" d="m222.9,33.7c-.26.54-1.06.82-1.78.62l-7.73-2.12c-.72-.2-1.09-.8-.83-1.34v-.02c.27-.54,1.07-.82,1.78-.62l7.73,2.12c.72.2,1.09.8.83,1.34v.02Z"/><path class="cls-2" d="m214.18,29.18c-.72-.2-1.13-.77-.95-1.33.5-1.58.44-3.25-.19-4.82-1.06-2.65-1.03-5.6.08-7.9,1.09-2.26,3.2-3.91,6.09-4.77,2.76-.82,5.99-.81,9.08.04,3.09.85,5.58,2.4,6.99,4.37,1.48,2.06,1.69,4.34.6,6.6-1.11,2.3-3.6,4.57-6.67,6.09-1.83.9-3.3,2.15-4.26,3.6-.34.52-1.14.76-1.86.56l-8.92-2.45Zm8.73-.05c1.17-1.42,2.77-2.66,4.64-3.59,2.5-1.24,4.6-3.13,5.48-4.96.8-1.65.66-3.24-.41-4.72-1.06-1.48-2.97-2.65-5.36-3.31-2.39-.66-4.85-.68-6.93-.06-2.09.62-3.55,1.77-4.34,3.42-.88,1.82-.89,4.29-.03,6.45.65,1.62.82,3.34.5,5l6.45,1.77Z"/><path class="cls-2" d="m220.19,34.92l-6.59-1.81c-.67-.18-1.42.08-1.66.58l-.07.14c-.24.5.1,1.07.77,1.25l1.28.35c.12.57.73,1.11,1.62,1.36.9.25,1.83.13,2.4-.25l1.28.35c.67.18,1.42-.08,1.66-.58l.07-.14c.24-.5-.1-1.07-.77-1.25Z"/><polygon class="cls-2" points="231.04 8.56 227.78 7.66 230.33 2.37 233.59 3.26 231.04 8.56"/><polygon class="cls-2" points="215.92 9.06 212.76 3.95 215.91 2.84 219.07 7.95 215.92 9.06"/><polygon class="cls-2" points="238.93 15.37 237.46 13 244.24 10.62 245.7 12.99 238.93 15.37"/><path class="cls-1" d="m261,114.84c20.91-2.63,28.23-13.37,28.68-41.94h-25.48v-19.54h26.4v-19.88h20v19.88h45.59v44.22c0,24.68-9.6,34.05-34.97,34.74h-10.86v-19.54h8.23c15.2-.23,17.37-2.74,17.37-19.66v-20.23h-26.28c-1.37,22.4-4.91,34.97-12.57,43.88-9.26,10.86-20.34,16.23-36.11,17.48v-19.43Z"/><path class="cls-1" d="m381.78,111.98h39.31c22.97.11,30.51-7.2,31.08-29.94v-26.63h-38.85c-2.86,21.71-14.06,32.91-35.77,35.65v-19.77c12.8-2.51,18.06-12.68,18.28-35.42h76.91v45.59c-.23,16.57-2.51,25.48-8.68,33.71-8,10.63-18.51,15.2-35.42,15.54h-46.85v-18.74Z"/><path class="cls-1" d="m256,110.84c20.91-2.63,28.23-13.37,28.68-41.94h-25.48v-19.54h26.4v-19.88h20v19.88h45.59v44.22c0,24.68-9.6,34.05-34.97,34.74h-10.86v-19.54h8.23c15.2-.23,17.37-2.74,17.37-19.66v-20.23h-26.28c-1.37,22.4-4.91,34.97-12.57,43.88-9.26,10.86-20.34,16.23-36.11,17.48v-19.43Z"/><path class="cls-1" d="m376.78,107.98h39.31c22.97.11,30.51-7.2,31.08-29.94v-26.63h-38.85c-2.86,21.71-14.06,32.91-35.77,35.65v-19.77c12.8-2.51,18.06-12.68,18.28-35.42h76.91v45.59c-.23,16.57-2.51,25.48-8.68,33.71-8,10.63-18.51,15.2-35.42,15.54h-46.85v-18.74Z"/><path class="cls-1" d="m255.88,110.17c20.91-2.63,28.23-13.37,28.68-41.94h-25.48v-19.54h26.4v-19.88h20v19.88h45.59v44.22c0,24.68-9.6,34.05-34.97,34.74h-10.86v-19.54h8.23c15.2-.23,17.37-2.74,17.37-19.66v-20.23h-26.28c-1.37,22.4-4.91,34.97-12.57,43.88-9.26,10.86-20.34,16.23-36.11,17.48v-19.43Z"/><path class="cls-1" d="m376.66,107.32h39.31c22.97.11,30.51-7.2,31.08-29.94v-26.63h-38.85c-2.86,21.71-14.06,32.91-35.77,35.65v-19.77c12.8-2.51,18.06-12.68,18.28-35.42h76.91v45.59c-.23,16.57-2.51,25.48-8.68,33.71-8,10.63-18.51,15.2-35.42,15.54h-46.85v-18.74Z"/><path class="cls-2" d="m333.47,34.06c-2.66,0-5.31.47-7.77,1.36v-13.89c.3-.12.6-.24.9-.34v11.99c0,.27.15.53.4.69.25.16.57.21.87.13,3.07-.82,6.52-.64,9.76.44-1.36-.25-2.75-.38-4.15-.38Zm7.77.01c-1.94-1-4.04-1.7-6.16-2.04-1.06-.17-2.12-.26-3.18-.26-1.14,0-2.26.1-3.35.3v-14.57c4.01-1.62,8.67-1.62,12.69,0v16.57Zm18.95-13.84c-.75-.34-1.53-.63-2.32-.88v-2.39c0-.32-.21-.62-.53-.76-4.71-2.1-10.31-2.17-15.08-.19-.02,0-.02,0-.04,0-4.77-1.98-10.37-1.91-15.08.19-.33.15-.53.44-.53.76v2.39c-.79.25-1.57.54-2.32.88-.33.15-.53.44-.53.76v15.76c0,.3.18.57.47.73.29.16.65.17.95.03,5.2-2.32,11.41-2.32,16.6,0,.14.06.29.09.44.09h.04c.15,0,.3-.03.44-.09,5.2-2.32,11.41-2.32,16.6,0,.3.14.66.12.95-.03.29-.16.47-.43.47-.73v-15.76c0-.32-.21-.62-.53-.76Zm-16.96-2.73c4.01-1.62,8.67-1.62,12.69,0v14.57c-1.08-.2-2.21-.3-3.35-.3-1.05,0-2.12.09-3.18.26-2.12.35-4.22,1.05-6.16,2.04v-16.57Zm15.54,17.91c-2.45-.89-5.11-1.36-7.77-1.36-1.39,0-2.78.13-4.15.38,3.24-1.09,6.68-1.27,9.76-.44.3.08.62.03.87-.13.25-.16.4-.42.4-.69v-11.99c.3.11.6.22.9.34v13.89Z"/><path class="cls-2" d="m331.47,32.06c-2.66,0-5.31.47-7.77,1.36v-13.89c.3-.12.6-.24.9-.34v11.99c0,.27.15.53.4.69.25.16.57.21.87.13,3.07-.82,6.52-.64,9.76.44-1.36-.25-2.75-.38-4.15-.38Zm7.77.01c-1.94-1-4.04-1.7-6.16-2.04-1.06-.17-2.12-.26-3.18-.26-1.14,0-2.26.1-3.35.3v-14.57c4.01-1.62,8.67-1.62,12.69,0v16.57Zm18.95-13.84c-.75-.34-1.53-.63-2.32-.88v-2.39c0-.32-.21-.62-.53-.76-4.71-2.1-10.31-2.17-15.08-.19-.02,0-.02,0-.04,0-4.77-1.98-10.37-1.91-15.08.19-.33.15-.53.44-.53.76v2.39c-.79.25-1.57.54-2.32.88-.33.15-.53.44-.53.76v15.76c0,.3.18.57.47.73.29.16.65.17.95.03,5.2-2.32,11.41-2.32,16.6,0,.14.06.29.09.44.09h.04c.15,0,.3-.03.44-.09,5.2-2.32,11.41-2.32,16.6,0,.3.14.66.12.95-.03.29-.16.47-.43.47-.73v-15.76c0-.32-.21-.62-.53-.76Zm-16.96-2.73c4.01-1.62,8.67-1.62,12.69,0v14.57c-1.08-.2-2.21-.3-3.35-.3-1.05,0-2.12.09-3.18.26-2.12.35-4.22,1.05-6.16,2.04V15.51Zm15.54,17.91c-2.45-.89-5.11-1.36-7.77-1.36-1.39,0-2.78.13-4.15.38,3.24-1.09,6.68-1.27,9.76-.44.3.08.62.03.87-.13.25-.16.4-.42.4-.69v-11.99c.3.11.6.22.9.34v13.89Z"/><path class="cls-6" d="m31.08,112.1h25.83c16.57.23,23.65-8.11,23.43-27.54v-13.48h-28.34v24.34h-19.54v-24.34H13.48v-18.51h18.97v-19.43h19.54v19.43h28.34v-19.43h20.34v19.43h19.77v18.51h-19.77v13.37c.57,29.25-15.31,46.05-43.42,46.05h-26.17v-18.4Z"/><path class="cls-6" d="m135.64,110.61c6.97-1.14,10.17-6.51,10.4-17.71v-14.74h18.63v13.83c0,11.54-1.94,19.77-5.83,25.37-5.71,8.11-13.48,12.46-23.2,12.91v-19.65Zm41.48-41.25h-38.4v-18.51h38.4v-17.71h20v17.71h38.51v18.51h-38.51v62.74h-20v-62.74Zm30.74,25.48v-16.68h18.4v15.2c0,9.48,3.54,14.63,12.11,17.03v19.88c-20.91-2.17-30.4-13.26-30.51-35.42Z"/><path class="cls-7" d="m28.08,108.1h25.83c16.57.23,23.65-8.11,23.43-27.54v-13.48h-28.34v24.34h-19.54v-24.34H10.48v-18.51h18.97v-19.43h19.54v19.43h28.34v-19.43h20.34v19.43h19.77v18.51h-19.77v13.37c.57,29.25-15.31,46.05-43.42,46.05h-26.17v-18.4Z"/><path class="cls-7" d="m132.64,106.61c6.97-1.14,10.17-6.51,10.4-17.71v-14.74h18.63v13.83c0,11.54-1.94,19.77-5.83,25.37-5.71,8.11-13.48,12.46-23.2,12.91v-19.65Zm41.48-41.25h-38.4v-18.51h38.4v-17.71h20v17.71h38.51v18.51h-38.51v62.74h-20v-62.74Zm30.74,25.48v-16.68h18.4v15.2c0,9.48,3.54,14.63,12.11,17.03v19.88c-20.91-2.17-30.4-13.26-30.51-35.42Z"/><path class="cls-10" d="m28.2,107.76h25.83c16.57.23,23.65-8.11,23.43-27.54v-13.48h-28.34v24.34h-19.54v-24.34H10.6v-18.51h18.97v-19.43h19.54v19.43h28.34v-19.43h20.34v19.43h19.77v18.51h-19.77v13.37c.57,29.25-15.31,46.05-43.42,46.05h-26.17v-18.4Z"/><path class="cls-10" d="m132.87,106.28c6.97-1.14,10.17-6.51,10.4-17.71v-14.74h18.63v13.83c0,11.54-1.94,19.77-5.83,25.37-5.71,8.11-13.48,12.46-23.2,12.91v-19.65Zm41.48-41.25h-38.4v-18.51h38.4v-17.71h20v17.71h38.51v18.51h-38.51v62.74h-20v-62.74Zm30.74,25.48v-16.68h18.4v15.2c0,9.48,3.54,14.63,12.11,17.03v19.88c-20.91-2.17-30.4-13.26-30.51-35.42Z"/><path class="cls-3" d="m225.39,34.67c-.26.54-1.06.82-1.78.62l-7.73-2.12c-.72-.2-1.09-.8-.83-1.34v-.02c.27-.54,1.07-.82,1.78-.62l7.73,2.12c.72.2,1.09.8.83,1.34v.02Z"/><path class="cls-3" d="m216.67,30.15c-.72-.2-1.13-.77-.95-1.33.5-1.58.44-3.25-.19-4.82-1.06-2.65-1.03-5.6.08-7.9,1.09-2.26,3.2-3.91,6.09-4.77,2.76-.82,5.99-.81,9.08.04,3.09.85,5.58,2.4,6.99,4.37,1.48,2.06,1.69,4.34.6,6.6-1.11,2.3-3.6,4.57-6.67,6.09-1.83.9-3.3,2.15-4.26,3.6-.34.52-1.14.76-1.86.56l-8.92-2.45Zm8.73-.05c1.17-1.42,2.77-2.66,4.64-3.59,2.5-1.24,4.6-3.13,5.48-4.96.8-1.65.66-3.24-.41-4.72-1.06-1.48-2.97-2.65-5.36-3.31-2.39-.66-4.85-.68-6.93-.06-2.09.62-3.55,1.77-4.34,3.42-.88,1.82-.89,4.29-.03,6.45.65,1.62.82,3.34.5,5l6.45,1.77Z"/><path class="cls-3" d="m222.67,35.89l-6.59-1.81c-.67-.18-1.42.08-1.66.58l-.07.14c-.24.5.1,1.07.77,1.25l1.28.35c.12.57.73,1.11,1.62,1.36.9.25,1.83.13,2.4-.25l1.28.35c.67.18,1.42-.08,1.66-.58l.07-.14c.24-.5-.1-1.07-.77-1.25Z"/><polygon class="cls-3" points="233.52 9.53 230.26 8.63 232.81 3.34 236.08 4.24 233.52 9.53"/><polygon class="cls-3" points="218.41 10.03 215.25 4.92 218.39 3.82 221.55 8.92 218.41 10.03"/><polygon class="cls-3" points="241.41 16.34 239.95 13.97 246.72 11.59 248.19 13.96 241.41 16.34"/><path class="cls-4" d="m223.39,33.67c-.26.54-1.06.82-1.78.62l-7.73-2.12c-.72-.2-1.09-.8-.83-1.34v-.02c.27-.54,1.07-.82,1.78-.62l7.73,2.12c.72.2,1.09.8.83,1.34v.02Z"/><path class="cls-4" d="m214.67,29.15c-.72-.2-1.13-.77-.95-1.33.5-1.58.44-3.25-.19-4.82-1.06-2.65-1.03-5.6.08-7.9,1.09-2.26,3.2-3.91,6.09-4.77,2.76-.82,5.99-.81,9.08.04,3.09.85,5.58,2.4,6.99,4.37,1.48,2.06,1.69,4.34.6,6.6-1.11,2.3-3.6,4.57-6.67,6.09-1.83.9-3.3,2.15-4.26,3.6-.34.52-1.14.76-1.86.56l-8.92-2.45Zm8.73-.05c1.17-1.42,2.77-2.66,4.64-3.59,2.5-1.24,4.6-3.13,5.48-4.96.8-1.65.66-3.24-.41-4.72-1.06-1.48-2.97-2.65-5.36-3.31-2.39-.66-4.85-.68-6.93-.06-2.09.62-3.55,1.77-4.34,3.42-.88,1.82-.89,4.29-.03,6.45.65,1.62.82,3.34.5,5l6.45,1.77Z"/><path class="cls-4" d="m220.67,34.89l-6.59-1.81c-.67-.18-1.42.08-1.66.58l-.07.14c-.24.5.1,1.07.77,1.25l1.28.35c.12.57.73,1.11,1.62,1.36.9.25,1.83.13,2.4-.25l1.28.35c.67.18,1.42-.08,1.66-.58l.07-.14c.24-.5-.1-1.07-.77-1.25Z"/><polygon class="cls-4" points="231.52 8.53 228.26 7.63 230.81 2.34 234.08 3.24 231.52 8.53"/><polygon class="cls-4" points="216.41 9.03 213.25 3.92 216.39 2.82 219.55 7.92 216.41 9.03"/><polygon class="cls-4" points="239.41 15.34 237.95 12.97 244.72 10.59 246.19 12.96 239.41 15.34"/><path class="cls-8" d="m261.48,113.81c20.91-2.63,28.23-13.37,28.68-41.94h-25.48v-19.54h26.4v-19.88h20v19.88h45.59v44.22c0,24.68-9.6,34.05-34.97,34.74h-10.86v-19.54h8.23c15.2-.23,17.37-2.74,17.37-19.66v-20.23h-26.28c-1.37,22.4-4.91,34.97-12.57,43.88-9.26,10.86-20.34,16.23-36.11,17.48v-19.43Z"/><path class="cls-8" d="m382.26,110.95h39.31c22.97.11,30.51-7.2,31.08-29.94v-26.63h-38.85c-2.86,21.71-14.06,32.91-35.77,35.65v-19.77c12.8-2.51,18.06-12.68,18.28-35.42h76.91v45.59c-.23,16.57-2.51,25.48-8.68,33.71-8,10.63-18.51,15.2-35.42,15.54h-46.85v-18.74Z"/><path class="cls-9" d="m256.48,109.81c20.91-2.63,28.23-13.37,28.68-41.94h-25.48v-19.54h26.4v-19.88h20v19.88h45.59v44.22c0,24.68-9.6,34.05-34.97,34.74h-10.86v-19.54h8.23c15.2-.23,17.37-2.74,17.37-19.66v-20.23h-26.28c-1.37,22.4-4.91,34.97-12.57,43.88-9.26,10.86-20.34,16.23-36.11,17.48v-19.43Z"/><path class="cls-9" d="m377.26,106.95h39.31c22.97.11,30.51-7.2,31.08-29.94v-26.63h-38.85c-2.86,21.71-14.06,32.91-35.77,35.65v-19.77c12.8-2.51,18.06-12.68,18.28-35.42h76.91v45.59c-.23,16.57-2.51,25.48-8.68,33.71-8,10.63-18.51,15.2-35.42,15.54h-46.85v-18.74Z"/><path class="cls-10" d="m256.36,109.15c20.91-2.63,28.23-13.37,28.68-41.94h-25.48v-19.54h26.4v-19.88h20v19.88h45.59v44.22c0,24.68-9.6,34.05-34.97,34.74h-10.86v-19.54h8.23c15.2-.23,17.37-2.74,17.37-19.66v-20.23h-26.28c-1.37,22.4-4.91,34.97-12.57,43.88-9.26,10.86-20.34,16.23-36.11,17.48v-19.43Z"/><path class="cls-10" d="m377.15,106.29h39.31c22.97.11,30.51-7.2,31.08-29.94v-26.63h-38.85c-2.86,21.71-14.06,32.91-35.77,35.65v-19.77c12.8-2.51,18.06-12.68,18.28-35.42h76.91v45.59c-.23,16.57-2.51,25.48-8.68,33.71-8,10.63-18.51,15.2-35.42,15.54h-46.85v-18.74Z"/><path class="cls-3" d="m333.95,34.04c-2.66,0-5.31.47-7.77,1.36v-13.89c.3-.12.6-.24.9-.34v11.99c0,.27.15.53.4.69.25.16.57.21.87.13,3.07-.82,6.52-.64,9.76.44-1.36-.25-2.75-.38-4.15-.38Zm7.77.01c-1.94-1-4.04-1.7-6.16-2.04-1.06-.17-2.12-.26-3.18-.26-1.14,0-2.26.1-3.35.3v-14.57c4.01-1.62,8.67-1.62,12.69,0v16.57Zm18.95-13.84c-.75-.34-1.53-.63-2.32-.88v-2.39c0-.32-.21-.62-.53-.76-4.71-2.1-10.31-2.17-15.08-.19-.02,0-.02,0-.04,0-4.77-1.98-10.37-1.91-15.08.19-.33.15-.53.44-.53.76v2.39c-.79.25-1.57.54-2.32.88-.33.15-.53.44-.53.76v15.76c0,.3.18.57.47.73.29.16.65.17.95.03,5.2-2.32,11.41-2.32,16.6,0,.14.06.29.09.44.09h.04c.15,0,.3-.03.44-.09,5.2-2.32,11.41-2.32,16.6,0,.3.14.66.12.95-.03.29-.16.47-.43.47-.73v-15.76c0-.32-.21-.62-.53-.76Zm-16.96-2.73c4.01-1.62,8.67-1.62,12.69,0v14.57c-1.08-.2-2.21-.3-3.35-.3-1.05,0-2.12.09-3.18.26-2.12.35-4.22,1.05-6.16,2.04v-16.57Zm15.54,17.91c-2.45-.89-5.11-1.36-7.77-1.36-1.39,0-2.78.13-4.15.38,3.24-1.09,6.68-1.27,9.76-.44.3.08.62.03.87-.13.25-.16.4-.42.4-.69v-11.99c.3.11.6.22.9.34v13.89Z"/><path class="cls-5" d="m331.95,32.04c-2.66,0-5.31.47-7.77,1.36v-13.89c.3-.12.6-.24.9-.34v11.99c0,.27.15.53.4.69.25.16.57.21.87.13,3.07-.82,6.52-.64,9.76.44-1.36-.25-2.75-.38-4.15-.38Zm7.77.01c-1.94-1-4.04-1.7-6.16-2.04-1.06-.17-2.12-.26-3.18-.26-1.14,0-2.26.1-3.35.3v-14.57c4.01-1.62,8.67-1.62,12.69,0v16.57Zm18.95-13.84c-.75-.34-1.53-.63-2.32-.88v-2.39c0-.32-.21-.62-.53-.76-4.71-2.1-10.31-2.17-15.08-.19-.02,0-.02,0-.04,0-4.77-1.98-10.37-1.91-15.08.19-.33.15-.53.44-.53.76v2.39c-.79.25-1.57.54-2.32.88-.33.15-.53.44-.53.76v15.76c0,.3.18.57.47.73.29.16.65.17.95.03,5.2-2.32,11.41-2.32,16.6,0,.14.06.29.09.44.09h.04c.15,0,.3-.03.44-.09,5.2-2.32,11.41-2.32,16.6,0,.3.14.66.12.95-.03.29-.16.47-.43.47-.73v-15.76c0-.32-.21-.62-.53-.76Zm-16.96-2.73c4.01-1.62,8.67-1.62,12.69,0v14.57c-1.08-.2-2.21-.3-3.35-.3-1.05,0-2.12.09-3.18.26-2.12.35-4.22,1.05-6.16,2.04V15.48Zm15.54,17.91c-2.45-.89-5.11-1.36-7.77-1.36-1.39,0-2.78.13-4.15.38,3.24-1.09,6.68-1.27,9.76-.44.3.08.62.03.87-.13.25-.16.4-.42.4-.69v-11.99c.3.11.6.22.9.34v13.89Z"/></svg>